<svg xmlns="http://www.w3.org/2000/svg" width="900" height="430" viewBox="0 0 900 430">
<rect width="100%" height="100%" fill="#000000"/>
<text x="75" y="36" font-family="Arial, sans-serif" font-size="22" font-weight="700" fill="#22c55e">V999 RLVR rollout length stayed volatile</text>
<line x1="75" y1="350" x2="850" y2="350" stroke="#525252"/>
<line x1="75" y1="70" x2="75" y2="350" stroke="#525252"/>
<line x1="70" y1="350.0" x2="850" y2="350.0" stroke="#1f2937"/>
<text x="63" y="354.0" text-anchor="end" font-family="Arial, sans-serif" font-size="12" fill="#555">0</text>
<line x1="70" y1="294.0" x2="850" y2="294.0" stroke="#1f2937"/>
<text x="63" y="298.0" text-anchor="end" font-family="Arial, sans-serif" font-size="12" fill="#555">1052</text>
<line x1="70" y1="238.0" x2="850" y2="238.0" stroke="#1f2937"/>
<text x="63" y="242.0" text-anchor="end" font-family="Arial, sans-serif" font-size="12" fill="#555">2103</text>
<line x1="70" y1="182.0" x2="850" y2="182.0" stroke="#1f2937"/>
<text x="63" y="186.0" text-anchor="end" font-family="Arial, sans-serif" font-size="12" fill="#555">3155</text>
<line x1="70" y1="126.0" x2="850" y2="126.0" stroke="#1f2937"/>
<text x="63" y="130.0" text-anchor="end" font-family="Arial, sans-serif" font-size="12" fill="#555">4206</text>
<line x1="70" y1="70.0" x2="850" y2="70.0" stroke="#1f2937"/>
<text x="63" y="74.0" text-anchor="end" font-family="Arial, sans-serif" font-size="12" fill="#555">5258</text>
<text x="75.0" y="374" text-anchor="middle" font-family="Arial, sans-serif" font-size="12" fill="#555">0</text>
<text x="215.9" y="374" text-anchor="middle" font-family="Arial, sans-serif" font-size="12" fill="#555">2</text>
<text x="356.8" y="374" text-anchor="middle" font-family="Arial, sans-serif" font-size="12" fill="#555">4</text>
<text x="497.7" y="374" text-anchor="middle" font-family="Arial, sans-serif" font-size="12" fill="#555">6</text>
<text x="638.6" y="374" text-anchor="middle" font-family="Arial, sans-serif" font-size="12" fill="#555">8</text>
<text x="779.5" y="374" text-anchor="middle" font-family="Arial, sans-serif" font-size="12" fill="#555">10</text>
<text x="850.0" y="374" text-anchor="middle" font-family="Arial, sans-serif" font-size="12" fill="#555">11</text>
<polyline points="75.0,253.7 145.5,150.2 215.9,215.6 286.4,100.0 356.8,182.7 427.3,125.9 497.7,244.7 568.2,139.3 638.6,227.5 709.1,118.7 779.5,175.9 850.0,161.8" fill="none" stroke="#d6452c" stroke-width="3"/>
<circle cx="75.0" cy="253.7" r="4" fill="#d6452c"/>
<circle cx="145.5" cy="150.2" r="4" fill="#d6452c"/>
<circle cx="215.9" cy="215.6" r="4" fill="#d6452c"/>
<circle cx="286.4" cy="100.0" r="4" fill="#d6452c"/>
<circle cx="356.8" cy="182.7" r="4" fill="#d6452c"/>
<circle cx="427.3" cy="125.9" r="4" fill="#d6452c"/>
<circle cx="497.7" cy="244.7" r="4" fill="#d6452c"/>
<circle cx="568.2" cy="139.3" r="4" fill="#d6452c"/>
<circle cx="638.6" cy="227.5" r="4" fill="#d6452c"/>
<circle cx="709.1" cy="118.7" r="4" fill="#d6452c"/>
<circle cx="779.5" cy="175.9" r="4" fill="#d6452c"/>
<circle cx="850.0" cy="161.8" r="4" fill="#d6452c"/>
<text x="462.5" y="410" text-anchor="middle" font-family="Arial, sans-serif" font-size="13" fill="#555">orchestrator step</text>
<text x="20" y="210.0" transform="rotate(-90 20 210.0)" text-anchor="middle" font-family="Arial, sans-serif" font-size="13" fill="#555">tokens / sample</text>
</svg>