<svg xmlns="http://www.w3.org/2000/svg" width="900" height="420" viewBox="0 0 900 420">
<rect width="100%" height="100%" fill="#fbfaf7"/>
<text x="90" y="36" font-family="Inter, Arial, sans-serif" font-size="22" font-weight="700" fill="#1f2933">RLVR held-out-69 did not beat SFT_HALF_A</text>
<line x1="90" y1="340" x2="860" y2="340" stroke="#2d3748" stroke-width="1"/>
<line x1="90" y1="70" x2="90" y2="340" stroke="#2d3748" stroke-width="1"/>
<line x1="85" y1="340.0" x2="860" y2="340.0" stroke="#e5e0d8" stroke-width="1"/>
<text x="78" y="344.0" text-anchor="end" font-family="Inter, Arial, sans-serif" font-size="12" fill="#5f6b7a">0</text>
<line x1="85" y1="300.9" x2="860" y2="300.9" stroke="#e5e0d8" stroke-width="1"/>
<text x="78" y="304.9" text-anchor="end" font-family="Inter, Arial, sans-serif" font-size="12" fill="#5f6b7a">10</text>
<line x1="85" y1="261.7" x2="860" y2="261.7" stroke="#e5e0d8" stroke-width="1"/>
<text x="78" y="265.7" text-anchor="end" font-family="Inter, Arial, sans-serif" font-size="12" fill="#5f6b7a">20</text>
<line x1="85" y1="222.6" x2="860" y2="222.6" stroke="#e5e0d8" stroke-width="1"/>
<text x="78" y="226.6" text-anchor="end" font-family="Inter, Arial, sans-serif" font-size="12" fill="#5f6b7a">30</text>
<line x1="85" y1="183.5" x2="860" y2="183.5" stroke="#e5e0d8" stroke-width="1"/>
<text x="78" y="187.5" text-anchor="end" font-family="Inter, Arial, sans-serif" font-size="12" fill="#5f6b7a">40</text>
<line x1="85" y1="144.3" x2="860" y2="144.3" stroke="#e5e0d8" stroke-width="1"/>
<text x="78" y="148.3" text-anchor="end" font-family="Inter, Arial, sans-serif" font-size="12" fill="#5f6b7a">50</text>
<line x1="85" y1="105.2" x2="860" y2="105.2" stroke="#e5e0d8" stroke-width="1"/>
<text x="78" y="109.2" text-anchor="end" font-family="Inter, Arial, sans-serif" font-size="12" fill="#5f6b7a">60</text>
<rect x="90.0" y="140.4" width="134.8" height="199.6" rx="4" fill="#2f6f73"/>
<text x="157.4" y="130.4" text-anchor="middle" font-family="Inter, Arial, sans-serif" font-size="17" font-weight="700" fill="#1f2933">51/69</text>
<text x="157.4" y="364.0" text-anchor="middle" font-family="Inter, Arial, sans-serif" font-size="13" fill="#344054">SFT_HALF_A</text>
<rect x="248.8" y="144.3" width="134.8" height="195.7" rx="4" fill="#8f5a2a"/>
<text x="316.2" y="134.3" text-anchor="middle" font-family="Inter, Arial, sans-serif" font-size="17" font-weight="700" fill="#1f2933">50/69</text>
<text x="316.2" y="364.0" text-anchor="middle" font-family="Inter, Arial, sans-serif" font-size="13" fill="#344054">V1000 step25</text>
<text x="316.2" y="380.0" text-anchor="middle" font-family="Inter, Arial, sans-serif" font-size="13" fill="#344054">direct merge</text>
<rect x="407.6" y="167.8" width="134.8" height="172.2" rx="4" fill="#7462a8"/>
<text x="475.0" y="157.8" text-anchor="middle" font-family="Inter, Arial, sans-serif" font-size="17" font-weight="700" fill="#1f2933">44/69</text>
<text x="475.0" y="364.0" text-anchor="middle" font-family="Inter, Arial, sans-serif" font-size="13" fill="#344054">V3000 step5</text>
<text x="475.0" y="380.0" text-anchor="middle" font-family="Inter, Arial, sans-serif" font-size="13" fill="#344054">adapter</text>
<rect x="566.4" y="156.1" width="134.8" height="183.9" rx="4" fill="#7462a8"/>
<text x="633.8" y="146.1" text-anchor="middle" font-family="Inter, Arial, sans-serif" font-size="17" font-weight="700" fill="#1f2933">47/69</text>
<text x="633.8" y="364.0" text-anchor="middle" font-family="Inter, Arial, sans-serif" font-size="13" fill="#344054">V3000 step10</text>
<text x="633.8" y="380.0" text-anchor="middle" font-family="Inter, Arial, sans-serif" font-size="13" fill="#344054">adapter</text>
<rect x="725.2" y="171.7" width="134.8" height="168.3" rx="4" fill="#7462a8"/>
<text x="792.6" y="161.7" text-anchor="middle" font-family="Inter, Arial, sans-serif" font-size="17" font-weight="700" fill="#1f2933">43/69</text>
<text x="792.6" y="364.0" text-anchor="middle" font-family="Inter, Arial, sans-serif" font-size="13" fill="#344054">V3000 step15</text>
<text x="792.6" y="380.0" text-anchor="middle" font-family="Inter, Arial, sans-serif" font-size="13" fill="#344054">adapter</text>
<text x="90" y="404" font-family="Inter, Arial, sans-serif" font-size="13" fill="#667085">V1000 bad HF export scored 0/69 and is intentionally omitted here; direct merge is the valid artifact.</text>
</svg>