<svg xmlns="http://www.w3.org/2000/svg" width="900" height="430" viewBox="0 0 900 430">
<rect width="100%" height="100%" fill="#050505"/>
<text x="75" y="36" font-family="Arial, sans-serif" font-size="22" font-weight="700" fill="#f4f4f5">V999 RLVR rollout reward was noisy, not monotonic</text>
<line x1="75" y1="350" x2="850" y2="350" stroke="#737373"/>
<line x1="75" y1="70" x2="75" y2="350" stroke="#737373"/>
<line x1="70" y1="350.0" x2="850" y2="350.0" stroke="#262626"/>
<text x="63" y="354.0" text-anchor="end" font-family="Arial, sans-serif" font-size="12" fill="#555">0</text>
<line x1="70" y1="294.0" x2="850" y2="294.0" stroke="#262626"/>
<text x="63" y="298.0" text-anchor="end" font-family="Arial, sans-serif" font-size="12" fill="#555">2</text>
<line x1="70" y1="238.0" x2="850" y2="238.0" stroke="#262626"/>
<text x="63" y="242.0" text-anchor="end" font-family="Arial, sans-serif" font-size="12" fill="#555">4</text>
<line x1="70" y1="182.0" x2="850" y2="182.0" stroke="#262626"/>
<text x="63" y="186.0" text-anchor="end" font-family="Arial, sans-serif" font-size="12" fill="#555">6</text>
<line x1="70" y1="126.0" x2="850" y2="126.0" stroke="#262626"/>
<text x="63" y="130.0" text-anchor="end" font-family="Arial, sans-serif" font-size="12" fill="#555">8</text>
<line x1="70" y1="70.0" x2="850" y2="70.0" stroke="#262626"/>
<text x="63" y="74.0" text-anchor="end" font-family="Arial, sans-serif" font-size="12" fill="#555">10</text>
<text x="75.0" y="374" text-anchor="middle" font-family="Arial, sans-serif" font-size="12" fill="#555">0</text>
<text x="215.9" y="374" text-anchor="middle" font-family="Arial, sans-serif" font-size="12" fill="#555">2</text>
<text x="356.8" y="374" text-anchor="middle" font-family="Arial, sans-serif" font-size="12" fill="#555">4</text>
<text x="497.7" y="374" text-anchor="middle" font-family="Arial, sans-serif" font-size="12" fill="#555">6</text>
<text x="638.6" y="374" text-anchor="middle" font-family="Arial, sans-serif" font-size="12" fill="#555">8</text>
<text x="779.5" y="374" text-anchor="middle" font-family="Arial, sans-serif" font-size="12" fill="#555">10</text>
<text x="850.0" y="374" text-anchor="middle" font-family="Arial, sans-serif" font-size="12" fill="#555">11</text>
<polyline points="75.0,99.2 145.5,170.2 215.9,134.2 286.4,210.0 356.8,151.7 427.3,245.0 497.7,122.5 568.2,200.5 638.6,113.8 709.1,201.2 779.5,175.0 850.0,186.7" fill="none" stroke="#2e9e5b" stroke-width="3"/>
<circle cx="75.0" cy="99.2" r="4" fill="#2e9e5b"/>
<circle cx="145.5" cy="170.2" r="4" fill="#2e9e5b"/>
<circle cx="215.9" cy="134.2" r="4" fill="#2e9e5b"/>
<circle cx="286.4" cy="210.0" r="4" fill="#2e9e5b"/>
<circle cx="356.8" cy="151.7" r="4" fill="#2e9e5b"/>
<circle cx="427.3" cy="245.0" r="4" fill="#2e9e5b"/>
<circle cx="497.7" cy="122.5" r="4" fill="#2e9e5b"/>
<circle cx="568.2" cy="200.5" r="4" fill="#2e9e5b"/>
<circle cx="638.6" cy="113.8" r="4" fill="#2e9e5b"/>
<circle cx="709.1" cy="201.2" r="4" fill="#2e9e5b"/>
<circle cx="779.5" cy="175.0" r="4" fill="#2e9e5b"/>
<circle cx="850.0" cy="186.7" r="4" fill="#2e9e5b"/>
<text x="462.5" y="410" text-anchor="middle" font-family="Arial, sans-serif" font-size="13" fill="#555">orchestrator step</text>
<text x="20" y="210.0" transform="rotate(-90 20 210.0)" text-anchor="middle" font-family="Arial, sans-serif" font-size="13" fill="#555">mean reward / rollout</text>
</svg>