<svg xmlns="http://www.w3.org/2000/svg" width="860" height="420" viewBox="0 0 860 420">
<rect width="100%" height="100%" fill="#000000"/>
<text x="90" y="36" font-family="Arial, sans-serif" font-size="22" font-weight="700" fill="#22c55e">RLVR greedy held-out-69 did not beat SFT_HALF_A</text>
<line x1="90" y1="340" x2="820" y2="340" stroke="#525252"/>
<line x1="90" y1="70" x2="90" y2="340" stroke="#525252"/>
<line x1="85" y1="340.0" x2="820" y2="340.0" stroke="#1f2937"/>
<text x="78" y="344.0" text-anchor="end" font-family="Arial, sans-serif" font-size="12" fill="#555">0</text>
<line x1="85" y1="300.9" x2="820" y2="300.9" stroke="#1f2937"/>
<text x="78" y="304.9" text-anchor="end" font-family="Arial, sans-serif" font-size="12" fill="#555">10</text>
<line x1="85" y1="261.7" x2="820" y2="261.7" stroke="#1f2937"/>
<text x="78" y="265.7" text-anchor="end" font-family="Arial, sans-serif" font-size="12" fill="#555">20</text>
<line x1="85" y1="222.6" x2="820" y2="222.6" stroke="#1f2937"/>
<text x="78" y="226.6" text-anchor="end" font-family="Arial, sans-serif" font-size="12" fill="#555">30</text>
<line x1="85" y1="183.5" x2="820" y2="183.5" stroke="#1f2937"/>
<text x="78" y="187.5" text-anchor="end" font-family="Arial, sans-serif" font-size="12" fill="#555">40</text>
<line x1="85" y1="144.3" x2="820" y2="144.3" stroke="#1f2937"/>
<text x="78" y="148.3" text-anchor="end" font-family="Arial, sans-serif" font-size="12" fill="#555">50</text>
<line x1="85" y1="105.2" x2="820" y2="105.2" stroke="#1f2937"/>
<text x="78" y="109.2" text-anchor="end" font-family="Arial, sans-serif" font-size="12" fill="#555">60</text>
<rect x="165" y="140.4" width="110" height="199.6" fill="#2a6fdb"/>
<text x="220.0" y="130.4" text-anchor="middle" font-family="Arial, sans-serif" font-size="16" font-weight="700" fill="#e5e7eb">51/69</text>
<text x="220.0" y="365" text-anchor="middle" font-family="Arial, sans-serif" font-size="13" fill="#333">SFT_HALF_A</text>
<rect x="355" y="160.0" width="110" height="180.0" fill="#2e9e5b"/>
<text x="410.0" y="150.0" text-anchor="middle" font-family="Arial, sans-serif" font-size="16" font-weight="700" fill="#e5e7eb">46/69</text>
<text x="410.0" y="365" text-anchor="middle" font-family="Arial, sans-serif" font-size="13" fill="#333">V999 step5
adapter</text>
<rect x="545" y="163.9" width="110" height="176.1" fill="#2e9e5b"/>
<text x="600.0" y="153.9" text-anchor="middle" font-family="Arial, sans-serif" font-size="16" font-weight="700" fill="#e5e7eb">45/69</text>
<text x="600.0" y="365" text-anchor="middle" font-family="Arial, sans-serif" font-size="13" fill="#333">V999 step10
adapter</text>
<text x="90" y="405" font-family="Arial, sans-serif" font-size="13" fill="#666">Both V999 adapters used clean PEFT adapter export from run_default/broadcasts/step_N.</text>
</svg>