<svg xmlns="http://www.w3.org/2000/svg" width="920" height="440" viewBox="0 0 920 440">
<rect width="100%" height="100%" fill="#fbfaf7"/>
<text x="75" y="36" font-family="Inter, Arial, sans-serif" font-size="22" font-weight="700" fill="#1f2933">RLVR rollout reward was noisy</text>
<text x="75" y="56" font-family="Inter, Arial, sans-serif" font-size="13" fill="#667085">Source: PRIME-RL orchestrator logs; held-out eval still regressed overall.</text>
<line x1="75" y1="368" x2="885" y2="368" stroke="#2d3748"/>
<line x1="75" y1="68" x2="75" y2="368" stroke="#2d3748"/>
<line x1="75" y1="368.0" x2="885" y2="368.0" stroke="#e5e0d8"/>
<text x="65" y="372.0" text-anchor="end" font-family="Inter, Arial, sans-serif" font-size="12" fill="#5f6b7a">-8.2</text>
<line x1="75" y1="308.0" x2="885" y2="308.0" stroke="#e5e0d8"/>
<text x="65" y="312.0" text-anchor="end" font-family="Inter, Arial, sans-serif" font-size="12" fill="#5f6b7a">-4.7</text>
<line x1="75" y1="248.0" x2="885" y2="248.0" stroke="#e5e0d8"/>
<text x="65" y="252.0" text-anchor="end" font-family="Inter, Arial, sans-serif" font-size="12" fill="#5f6b7a">-1.2</text>
<line x1="75" y1="188.0" x2="885" y2="188.0" stroke="#e5e0d8"/>
<text x="65" y="192.0" text-anchor="end" font-family="Inter, Arial, sans-serif" font-size="12" fill="#5f6b7a">2.3</text>
<line x1="75" y1="128.0" x2="885" y2="128.0" stroke="#e5e0d8"/>
<text x="65" y="132.0" text-anchor="end" font-family="Inter, Arial, sans-serif" font-size="12" fill="#5f6b7a">5.8</text>
<line x1="75" y1="68.0" x2="885" y2="68.0" stroke="#e5e0d8"/>
<text x="65" y="72.0" text-anchor="end" font-family="Inter, Arial, sans-serif" font-size="12" fill="#5f6b7a">9.3</text>
<text x="75.0" y="392" text-anchor="middle" font-family="Inter, Arial, sans-serif" font-size="12" fill="#5f6b7a">0</text>
<text x="237.0" y="392" text-anchor="middle" font-family="Inter, Arial, sans-serif" font-size="12" fill="#5f6b7a">9</text>
<text x="399.0" y="392" text-anchor="middle" font-family="Inter, Arial, sans-serif" font-size="12" fill="#5f6b7a">18</text>
<text x="561.0" y="392" text-anchor="middle" font-family="Inter, Arial, sans-serif" font-size="12" fill="#5f6b7a">27</text>
<text x="723.0" y="392" text-anchor="middle" font-family="Inter, Arial, sans-serif" font-size="12" fill="#5f6b7a">36</text>
<text x="885.0" y="392" text-anchor="middle" font-family="Inter, Arial, sans-serif" font-size="12" fill="#5f6b7a">45</text>
<text x="480.0" y="420" text-anchor="middle" font-family="Inter, Arial, sans-serif" font-size="13" fill="#344054">step</text>
<text x="18" y="218.0" text-anchor="middle" transform="rotate(-90 18 218.0)" font-family="Inter, Arial, sans-serif" font-size="13" fill="#344054">mean reward</text>
<path d="M75.0,88.7 L93.0,222.8 L111.0,153.3 L129.0,177.3 L147.0,269.5 L165.0,333.7 L183.0,314.7 L201.0,215.7 L219.0,230.4 L237.0,255.1 L255.0,314.4 L273.0,227.1 L291.0,150.0 L309.0,187.3 L327.0,179.4 L345.0,265.9 L363.0,208.1 L381.0,156.1 L399.0,153.3 L417.0,201.7 L435.0,279.2 L453.0,254.8 L471.0,113.4 L489.0,235.4 L507.0,315.4 L525.0,247.6 L543.0,252.6 L561.0,308.2 L579.0,220.3 L597.0,256.2 L615.0,279.5 L633.0,254.8 L651.0,265.4 L669.0,285.3 L687.0,213.2 L705.0,137.1 L723.0,218.5 L741.0,253.0 L759.0,258.0 L777.0,245.4 L795.0,197.7 L813.0,215.3 L831.0,184.8 L849.0,292.1 L867.0,202.0 L885.0,206.7" fill="none" stroke="#8f5a2a" stroke-width="2.6" stroke-linejoin="round" stroke-linecap="round"/>
<circle cx="885.0" cy="206.7" r="3.5" fill="#8f5a2a"/>
<rect x="665" y="76" width="13" height="13" fill="#8f5a2a" rx="2"/>
<text x="687" y="87" font-family="Inter, Arial, sans-serif" font-size="13" fill="#1f2933">V1000 reward</text>
<path d="M75.0,176.9 L93.0,259.4 L111.0,259.1 L129.0,284.5 L147.0,179.8 L165.0,282.7 L183.0,255.1 L201.0,209.9 L219.0,298.2 L237.0,178.7 L255.0,347.3 L273.0,230.7 L291.0,145.0 L309.0,212.1 L327.0,232.2 L345.0,167.6 L363.0,219.6 L381.0,265.5 L399.0,336.5 L417.0,263.4 L435.0,275.9 L453.0,187.7 L471.0,297.1 L489.0,226.8 L507.0,164.0 L525.0,268.0 L543.0,299.2 L561.0,346.6 L579.0,192.7 L597.0,208.9 L615.0,242.9 L633.0,317.9 L651.0,231.1 L669.0,231.8 L687.0,247.2 L705.0,273.8 L723.0,113.8" fill="none" stroke="#7462a8" stroke-width="2.6" stroke-linejoin="round" stroke-linecap="round"/>
<circle cx="723.0" cy="113.8" r="3.5" fill="#7462a8"/>
<rect x="665" y="98" width="13" height="13" fill="#7462a8" rx="2"/>
<text x="687" y="109" font-family="Inter, Arial, sans-serif" font-size="13" fill="#1f2933">V3000 reward</text>
</svg>