<svg xmlns="http://www.w3.org/2000/svg" width="900" height="430" viewBox="0 0 900 430">
<rect width="100%" height="100%" fill="#000000"/>
<text x="75" y="36" font-family="Arial, sans-serif" font-size="24" font-weight="800" fill="#22c55e">V999 RLVR rollout reward was noisy, not monotonic</text>
<line x1="75" y1="350" x2="850" y2="350" stroke="#6b7280"/>
<line x1="75" y1="70" x2="75" y2="350" stroke="#6b7280"/>
<line x1="70" y1="350.0" x2="850" y2="350.0" stroke="#253042"/>
<text x="63" y="354.0" text-anchor="end" font-family="Arial, sans-serif" font-size="16" fill="#a3a3a3">0</text>
<line x1="70" y1="294.0" x2="850" y2="294.0" stroke="#253042"/>
<text x="63" y="298.0" text-anchor="end" font-family="Arial, sans-serif" font-size="16" fill="#a3a3a3">2</text>
<line x1="70" y1="238.0" x2="850" y2="238.0" stroke="#253042"/>
<text x="63" y="242.0" text-anchor="end" font-family="Arial, sans-serif" font-size="16" fill="#a3a3a3">4</text>
<line x1="70" y1="182.0" x2="850" y2="182.0" stroke="#253042"/>
<text x="63" y="186.0" text-anchor="end" font-family="Arial, sans-serif" font-size="16" fill="#a3a3a3">6</text>
<line x1="70" y1="126.0" x2="850" y2="126.0" stroke="#253042"/>
<text x="63" y="130.0" text-anchor="end" font-family="Arial, sans-serif" font-size="16" fill="#a3a3a3">8</text>
<line x1="70" y1="70.0" x2="850" y2="70.0" stroke="#253042"/>
<text x="63" y="74.0" text-anchor="end" font-family="Arial, sans-serif" font-size="16" fill="#a3a3a3">10</text>
<text x="75.0" y="374" text-anchor="middle" font-family="Arial, sans-serif" font-size="16" fill="#a3a3a3">0</text>
<text x="215.9" y="374" text-anchor="middle" font-family="Arial, sans-serif" font-size="16" fill="#a3a3a3">2</text>
<text x="356.8" y="374" text-anchor="middle" font-family="Arial, sans-serif" font-size="16" fill="#a3a3a3">4</text>
<text x="497.7" y="374" text-anchor="middle" font-family="Arial, sans-serif" font-size="16" fill="#a3a3a3">6</text>
<text x="638.6" y="374" text-anchor="middle" font-family="Arial, sans-serif" font-size="16" fill="#a3a3a3">8</text>
<text x="779.5" y="374" text-anchor="middle" font-family="Arial, sans-serif" font-size="16" fill="#a3a3a3">10</text>
<text x="850.0" y="374" text-anchor="middle" font-family="Arial, sans-serif" font-size="16" fill="#a3a3a3">11</text>
<polyline points="75.0,99.2 145.5,170.2 215.9,134.2 286.4,210.0 356.8,151.7 427.3,245.0 497.7,122.5 568.2,200.5 638.6,113.8 709.1,201.2 779.5,175.0 850.0,186.7" fill="none" stroke="#22c55e" stroke-width="3.4"/>
<circle cx="75.0" cy="99.2" r="4.6" fill="#22c55e"/>
<circle cx="145.5" cy="170.2" r="4.6" fill="#22c55e"/>
<circle cx="215.9" cy="134.2" r="4.6" fill="#22c55e"/>
<circle cx="286.4" cy="210.0" r="4.6" fill="#22c55e"/>
<circle cx="356.8" cy="151.7" r="4.6" fill="#22c55e"/>
<circle cx="427.3" cy="245.0" r="4.6" fill="#22c55e"/>
<circle cx="497.7" cy="122.5" r="4.6" fill="#22c55e"/>
<circle cx="568.2" cy="200.5" r="4.6" fill="#22c55e"/>
<circle cx="638.6" cy="113.8" r="4.6" fill="#22c55e"/>
<circle cx="709.1" cy="201.2" r="4.6" fill="#22c55e"/>
<circle cx="779.5" cy="175.0" r="4.6" fill="#22c55e"/>
<circle cx="850.0" cy="186.7" r="4.6" fill="#22c55e"/>
<text x="462.5" y="410" text-anchor="middle" font-family="Arial, sans-serif" font-size="16" fill="#a3a3a3">orchestrator step</text>
<text x="20" y="210.0" transform="rotate(-90 20 210.0)" text-anchor="middle" font-family="Arial, sans-serif" font-size="16" fill="#a3a3a3">mean reward / rollout</text>
</svg>