<svg xmlns="http://www.w3.org/2000/svg" width="920" height="520" viewBox="0 0 920 520">
  <rect width="920" height="520" fill="#000000"/>

  <text x="72" y="42" font-family="Arial, sans-serif" font-size="24" font-weight="800" fill="#22c55e">Held-out-69 pass@4: flat prompt-level, small rollout-level shift</text>
  <text x="72" y="68" font-family="Arial, sans-serif" font-size="15" fill="#a3a3a3">SFT_HALF_A versus SFT_HALF_A + RLVR_V999_STEP10, same prompts and real cargo execution.</text>

  <line x1="92" y1="385" x2="855" y2="385" stroke="#6b7280"/>
  <line x1="92" y1="105" x2="92" y2="385" stroke="#6b7280"/>

  <g font-family="Arial, sans-serif" font-size="14" fill="#a3a3a3">
    <line x1="88" y1="385" x2="855" y2="385" stroke="#253042"/>
    <text x="78" y="390" text-anchor="end">0.0</text>
    <line x1="88" y1="329" x2="855" y2="329" stroke="#253042"/>
    <text x="78" y="334" text-anchor="end">0.2</text>
    <line x1="88" y1="273" x2="855" y2="273" stroke="#253042"/>
    <text x="78" y="278" text-anchor="end">0.4</text>
    <line x1="88" y1="217" x2="855" y2="217" stroke="#253042"/>
    <text x="78" y="222" text-anchor="end">0.6</text>
    <line x1="88" y1="161" x2="855" y2="161" stroke="#253042"/>
    <text x="78" y="166" text-anchor="end">0.8</text>
    <line x1="88" y1="105" x2="855" y2="105" stroke="#253042"/>
    <text x="78" y="110" text-anchor="end">1.0</text>
  </g>

  <g font-family="Arial, sans-serif">
    <rect x="172" y="145.6" width="52" height="239.4" fill="#38bdf8"/>
    <rect x="238" y="145.6" width="52" height="239.4" fill="#22c55e"/>
    <text x="198" y="133" text-anchor="middle" font-size="16" font-weight="700" fill="#e5e7eb">59/69</text>
    <text x="264" y="133" text-anchor="middle" font-size="16" font-weight="700" fill="#e5e7eb">59/69</text>
    <text x="231" y="425" text-anchor="middle" font-size="16" fill="#e5e7eb">Prompt pass@4</text>

    <rect x="427" y="197.2" width="52" height="187.8" fill="#38bdf8"/>
    <rect x="493" y="192.2" width="52" height="192.8" fill="#22c55e"/>
    <text x="453" y="184" text-anchor="middle" font-size="16" font-weight="700" fill="#e5e7eb">185/276</text>
    <text x="519" y="179" text-anchor="middle" font-size="16" font-weight="700" fill="#e5e7eb">190/276</text>
    <text x="486" y="425" text-anchor="middle" font-size="16" fill="#e5e7eb">Valid rollouts</text>

    <rect x="682" y="259.2" width="52" height="125.8" fill="#38bdf8"/>
    <rect x="748" y="242.8" width="52" height="142.2" fill="#22c55e"/>
    <text x="708" y="247" text-anchor="middle" font-size="16" font-weight="700" fill="#e5e7eb">31/69</text>
    <text x="774" y="230" text-anchor="middle" font-size="16" font-weight="700" fill="#e5e7eb">35/69</text>
    <text x="741" y="425" text-anchor="middle" font-size="16" fill="#e5e7eb">4/4 stable prompts</text>
  </g>

  <g font-family="Arial, sans-serif" font-size="15" fill="#e5e7eb">
    <rect x="286" y="462" width="15" height="15" fill="#38bdf8"/>
    <text x="312" y="475">SFT_HALF_A</text>
    <rect x="450" y="462" width="15" height="15" fill="#22c55e"/>
    <text x="476" y="475">RLVR_V999_STEP10</text>
  </g>
</svg>
