<svg xmlns="http://www.w3.org/2000/svg" width="900" height="280" viewBox="0 0 900 280">
<rect width="100%" height="100%" fill="white"/>
<text x="55" y="28" font-family="Arial, sans-serif" font-size="20" font-weight="700">Train Loss</text>
<line x1="55" y1="225" x2="845" y2="225" stroke="#222" stroke-width="1.5"/>
<line x1="55" y1="55" x2="55" y2="225" stroke="#222" stroke-width="1.5"/>
<line x1="55" y1="225.0" x2="845" y2="225.0" stroke="#e5e7eb" stroke-width="1"/>
<text x="45" y="229.0" text-anchor="end" font-family="Arial, sans-serif" font-size="11" fill="#374151">0.280</text>
<line x1="55" y1="182.5" x2="845" y2="182.5" stroke="#e5e7eb" stroke-width="1"/>
<text x="45" y="186.5" text-anchor="end" font-family="Arial, sans-serif" font-size="11" fill="#374151">0.795</text>
<line x1="55" y1="140.0" x2="845" y2="140.0" stroke="#e5e7eb" stroke-width="1"/>
<text x="45" y="144.0" text-anchor="end" font-family="Arial, sans-serif" font-size="11" fill="#374151">1.310</text>
<line x1="55" y1="97.5" x2="845" y2="97.5" stroke="#e5e7eb" stroke-width="1"/>
<text x="45" y="101.5" text-anchor="end" font-family="Arial, sans-serif" font-size="11" fill="#374151">1.825</text>
<line x1="55" y1="55.0" x2="845" y2="55.0" stroke="#e5e7eb" stroke-width="1"/>
<text x="45" y="59.0" text-anchor="end" font-family="Arial, sans-serif" font-size="11" fill="#374151">2.340</text>
<line x1="55.0" y1="55" x2="55.0" y2="225" stroke="#f3f4f6" stroke-width="1"/>
<text x="55.0" y="243" text-anchor="middle" font-family="Arial, sans-serif" font-size="11" fill="#374151">1</text>
<line x1="464.3" y1="55" x2="464.3" y2="225" stroke="#f3f4f6" stroke-width="1"/>
<text x="464.3" y="243" text-anchor="middle" font-family="Arial, sans-serif" font-size="11" fill="#374151">130</text>
<line x1="845.0" y1="55" x2="845.0" y2="225" stroke="#f3f4f6" stroke-width="1"/>
<text x="845.0" y="243" text-anchor="middle" font-family="Arial, sans-serif" font-size="11" fill="#374151">250</text>
<path d="M 55.0 55.0 L 83.6 88.0 L 115.3 159.9 L 147.0 187.4 L 178.7 199.6 L 210.5 201.7 L 242.2 211.1 L 273.9 208.7 L 305.6 214.0 L 337.4 213.3 L 369.1 213.1 L 400.8 219.9 L 432.6 218.6 L 464.3 217.4 L 496.0 218.0 L 527.7 219.9 L 559.5 217.8 L 591.2 220.1 L 622.9 222.3 L 654.6 220.0 L 686.4 225.0 L 718.1 220.1 L 749.8 219.4 L 781.5 225.0 L 813.3 224.2 L 845.0 219.8" fill="none" stroke="#2563eb" stroke-width="3" stroke-linecap="round" stroke-linejoin="round"/>
<circle cx="55.0" cy="55.0" r="2.5" fill="#2563eb"/>
<circle cx="83.6" cy="88.0" r="2.5" fill="#2563eb"/>
<circle cx="115.3" cy="159.9" r="2.5" fill="#2563eb"/>
<circle cx="147.0" cy="187.4" r="2.5" fill="#2563eb"/>
<circle cx="178.7" cy="199.6" r="2.5" fill="#2563eb"/>
<circle cx="210.5" cy="201.7" r="2.5" fill="#2563eb"/>
<circle cx="242.2" cy="211.1" r="2.5" fill="#2563eb"/>
<circle cx="273.9" cy="208.7" r="2.5" fill="#2563eb"/>
<circle cx="305.6" cy="214.0" r="2.5" fill="#2563eb"/>
<circle cx="337.4" cy="213.3" r="2.5" fill="#2563eb"/>
<circle cx="369.1" cy="213.1" r="2.5" fill="#2563eb"/>
<circle cx="400.8" cy="219.9" r="2.5" fill="#2563eb"/>
<circle cx="432.6" cy="218.6" r="2.5" fill="#2563eb"/>
<circle cx="464.3" cy="217.4" r="2.5" fill="#2563eb"/>
<circle cx="496.0" cy="218.0" r="2.5" fill="#2563eb"/>
<circle cx="527.7" cy="219.9" r="2.5" fill="#2563eb"/>
<circle cx="559.5" cy="217.8" r="2.5" fill="#2563eb"/>
<circle cx="591.2" cy="220.1" r="2.5" fill="#2563eb"/>
<circle cx="622.9" cy="222.3" r="2.5" fill="#2563eb"/>
<circle cx="654.6" cy="220.0" r="2.5" fill="#2563eb"/>
<circle cx="686.4" cy="225.0" r="2.5" fill="#2563eb"/>
<circle cx="718.1" cy="220.1" r="2.5" fill="#2563eb"/>
<circle cx="749.8" cy="219.4" r="2.5" fill="#2563eb"/>
<circle cx="781.5" cy="225.0" r="2.5" fill="#2563eb"/>
<circle cx="813.3" cy="224.2" r="2.5" fill="#2563eb"/>
<circle cx="845.0" cy="219.8" r="2.5" fill="#2563eb"/>
</svg>