<svg viewBox="0 0 640 460" xmlns="http://www.w3.org/2000/svg" font-family="ui-monospace, SFMono-Regular, Menlo, monospace">
<rect x="0" y="0" width="640" height="460" fill="#0c1712" rx="8"/>
<text x="50" y="18.0" font-size="11" fill="#82998d">mean batch reward per orchestrator step</text>
<line x1="50" y1="207.0" x2="624" y2="207.0" stroke="#1c2b24" stroke-width="1"/>
<text x="44" y="210.0" text-anchor="end" font-size="9.5" fill="#4d6358">-4</text>
<line x1="50" y1="155.3" x2="624" y2="155.3" stroke="#1c2b24" stroke-width="1"/>
<text x="44" y="158.3" text-anchor="end" font-size="9.5" fill="#4d6358">0</text>
<line x1="50" y1="26.0" x2="624" y2="26.0" stroke="#1c2b24" stroke-width="1"/>
<text x="44" y="29.0" text-anchor="end" font-size="9.5" fill="#4d6358">10</text>
<path d="M 50.0,30.4 L 102.2,104.9 L 154.4,116.2 L 206.5,102.5 L 258.7,103.5 L 310.9,143.1 L 363.1,109.7 L 415.3,98.3 L 467.5,84.7 L 519.6,84.9 L 571.8,135.7 L 624.0,89.1" fill="none" stroke="#3ddc84" stroke-width="2"/>
<circle cx="50.0" cy="30.4" r="2.4" fill="#3ddc84"/>
<circle cx="102.2" cy="104.9" r="2.4" fill="#3ddc84"/>
<circle cx="154.4" cy="116.2" r="2.4" fill="#3ddc84"/>
<circle cx="206.5" cy="102.5" r="2.4" fill="#3ddc84"/>
<circle cx="258.7" cy="103.5" r="2.4" fill="#3ddc84"/>
<circle cx="310.9" cy="143.1" r="2.4" fill="#3ddc84"/>
<circle cx="363.1" cy="109.7" r="2.4" fill="#3ddc84"/>
<circle cx="415.3" cy="98.3" r="2.4" fill="#3ddc84"/>
<circle cx="467.5" cy="84.7" r="2.4" fill="#3ddc84"/>
<circle cx="519.6" cy="84.9" r="2.4" fill="#3ddc84"/>
<circle cx="571.8" cy="135.7" r="2.4" fill="#3ddc84"/>
<circle cx="624.0" cy="89.1" r="2.4" fill="#3ddc84"/>
<path d="M 50.0,38.3 L 102.2,118.6 L 154.4,85.9 L 206.5,196.2 L 258.7,59.6 L 310.9,119.6 L 363.1,40.3 L 415.3,146.7 L 467.5,50.8 L 519.6,126.2 L 571.8,61.5 L 624.0,161.0" fill="none" stroke="#ffce6a" stroke-width="2"/>
<circle cx="50.0" cy="38.3" r="2.4" fill="#ffce6a"/>
<circle cx="102.2" cy="118.6" r="2.4" fill="#ffce6a"/>
<circle cx="154.4" cy="85.9" r="2.4" fill="#ffce6a"/>
<circle cx="206.5" cy="196.2" r="2.4" fill="#ffce6a"/>
<circle cx="258.7" cy="59.6" r="2.4" fill="#ffce6a"/>
<circle cx="310.9" cy="119.6" r="2.4" fill="#ffce6a"/>
<circle cx="363.1" cy="40.3" r="2.4" fill="#ffce6a"/>
<circle cx="415.3" cy="146.7" r="2.4" fill="#ffce6a"/>
<circle cx="467.5" cy="50.8" r="2.4" fill="#ffce6a"/>
<circle cx="519.6" cy="126.2" r="2.4" fill="#ffce6a"/>
<circle cx="571.8" cy="61.5" r="2.4" fill="#ffce6a"/>
<circle cx="624.0" cy="161.0" r="2.4" fill="#ffce6a"/>
<text x="50" y="237.0" font-size="11" fill="#82998d">rollouts retained after zero-advantage filtering (of 96)</text>
<line x1="50" y1="426.0" x2="624" y2="426.0" stroke="#1c2b24" stroke-width="1"/>
<text x="44" y="429.0" text-anchor="end" font-size="9.5" fill="#4d6358">0%</text>
<line x1="50" y1="335.5" x2="624" y2="335.5" stroke="#1c2b24" stroke-width="1"/>
<text x="44" y="338.5" text-anchor="end" font-size="9.5" fill="#4d6358">50%</text>
<line x1="50" y1="245.0" x2="624" y2="245.0" stroke="#1c2b24" stroke-width="1"/>
<text x="44" y="248.0" text-anchor="end" font-size="9.5" fill="#4d6358">100%</text>
<path d="M 50.0,277.1 L 102.2,395.8 L 154.4,380.8 L 206.5,410.9 L 258.7,369.4 L 310.9,335.5 L 363.1,365.7 L 415.3,365.7 L 467.5,335.5 L 519.6,350.6 L 571.8,378.9 L 624.0,346.8" fill="none" stroke="#3ddc84" stroke-width="2"/>
<circle cx="50.0" cy="277.1" r="2.4" fill="#3ddc84"/>
<circle cx="102.2" cy="395.8" r="2.4" fill="#3ddc84"/>
<circle cx="154.4" cy="380.8" r="2.4" fill="#3ddc84"/>
<circle cx="206.5" cy="410.9" r="2.4" fill="#3ddc84"/>
<circle cx="258.7" cy="369.4" r="2.4" fill="#3ddc84"/>
<circle cx="310.9" cy="335.5" r="2.4" fill="#3ddc84"/>
<circle cx="363.1" cy="365.7" r="2.4" fill="#3ddc84"/>
<circle cx="415.3" cy="365.7" r="2.4" fill="#3ddc84"/>
<circle cx="467.5" cy="335.5" r="2.4" fill="#3ddc84"/>
<circle cx="519.6" cy="350.6" r="2.4" fill="#3ddc84"/>
<circle cx="571.8" cy="378.9" r="2.4" fill="#3ddc84"/>
<circle cx="624.0" cy="346.8" r="2.4" fill="#3ddc84"/>
<path d="M 50.0,303.4 L 102.2,395.8 L 154.4,352.5 L 206.5,424.1 L 258.7,341.2 L 310.9,348.7 L 363.1,320.4 L 415.3,407.1 L 467.5,290.2 L 519.6,380.8 L 571.8,305.3 L 624.0,409.0" fill="none" stroke="#ffce6a" stroke-width="2"/>
<circle cx="50.0" cy="303.4" r="2.4" fill="#ffce6a"/>
<circle cx="102.2" cy="395.8" r="2.4" fill="#ffce6a"/>
<circle cx="154.4" cy="352.5" r="2.4" fill="#ffce6a"/>
<circle cx="206.5" cy="424.1" r="2.4" fill="#ffce6a"/>
<circle cx="258.7" cy="341.2" r="2.4" fill="#ffce6a"/>
<circle cx="310.9" cy="348.7" r="2.4" fill="#ffce6a"/>
<circle cx="363.1" cy="320.4" r="2.4" fill="#ffce6a"/>
<circle cx="415.3" cy="407.1" r="2.4" fill="#ffce6a"/>
<circle cx="467.5" cy="290.2" r="2.4" fill="#ffce6a"/>
<circle cx="519.6" cy="380.8" r="2.4" fill="#ffce6a"/>
<circle cx="571.8" cy="305.3" r="2.4" fill="#ffce6a"/>
<circle cx="624.0" cy="409.0" r="2.4" fill="#ffce6a"/>
<text x="50.0" y="440.0" text-anchor="middle" font-size="9" fill="#4d6358">0</text>
<text x="102.2" y="440.0" text-anchor="middle" font-size="9" fill="#4d6358">1</text>
<text x="154.4" y="440.0" text-anchor="middle" font-size="9" fill="#4d6358">2</text>
<text x="206.5" y="440.0" text-anchor="middle" font-size="9" fill="#4d6358">3</text>
<text x="258.7" y="440.0" text-anchor="middle" font-size="9" fill="#4d6358">4</text>
<text x="310.9" y="440.0" text-anchor="middle" font-size="9" fill="#4d6358">5</text>
<text x="363.1" y="440.0" text-anchor="middle" font-size="9" fill="#4d6358">6</text>
<text x="415.3" y="440.0" text-anchor="middle" font-size="9" fill="#4d6358">7</text>
<text x="467.5" y="440.0" text-anchor="middle" font-size="9" fill="#4d6358">8</text>
<text x="519.6" y="440.0" text-anchor="middle" font-size="9" fill="#4d6358">9</text>
<text x="571.8" y="440.0" text-anchor="middle" font-size="9" fill="#4d6358">10</text>
<text x="624.0" y="440.0" text-anchor="middle" font-size="9" fill="#4d6358">11</text>
<text x="320.0" y="454.0" text-anchor="middle" font-size="10" fill="#82998d">orchestrator step</text>
<rect x="474" y="22" width="10" height="10" fill="#3ddc84"/>
<text x="488" y="31" font-size="10" fill="#bcd6c5">Dense reward</text>
<rect x="474" y="36" width="10" height="10" fill="#ffce6a"/>
<text x="488" y="45" font-size="10" fill="#bcd6c5">Compiler-aware</text>
</svg>