<svg viewBox="0 0 640 340" xmlns="http://www.w3.org/2000/svg" font-family="ui-monospace, SFMono-Regular, Menlo, monospace">
<rect x="0" y="0" width="640" height="340" fill="#0c1712" rx="8"/>
<line x1="50" y1="294.0" x2="620" y2="294.0" stroke="#1c2b24" stroke-width="1"/>
<text x="42" y="298.0" text-anchor="end" font-size="10" fill="#82998d">85</text>
<line x1="50" y1="227.5" x2="620" y2="227.5" stroke="#1c2b24" stroke-width="1"/>
<text x="42" y="231.5" text-anchor="end" font-size="10" fill="#82998d">90</text>
<line x1="50" y1="161.0" x2="620" y2="161.0" stroke="#1c2b24" stroke-width="1"/>
<text x="42" y="165.0" text-anchor="end" font-size="10" fill="#82998d">95</text>
<line x1="50" y1="94.5" x2="620" y2="94.5" stroke="#1c2b24" stroke-width="1"/>
<text x="42" y="98.5" text-anchor="end" font-size="10" fill="#82998d">100</text>
<line x1="50" y1="28.0" x2="620" y2="28.0" stroke="#1c2b24" stroke-width="1"/>
<text x="42" y="32.0" text-anchor="end" font-size="10" fill="#82998d">105</text>
<rect x="50.0" y="161.0" width="50.0" height="133.0" fill="#5fd0db" opacity="0.9" rx="2"/>
<text x="75.0" y="155.0" text-anchor="middle" font-size="10.5" fill="#e7f5ea">95</text>
<rect x="108.0" y="134.4" width="50.0" height="159.6" fill="#5fd0db" opacity="0.9" rx="2"/>
<text x="133.0" y="128.4" text-anchor="middle" font-size="10.5" fill="#e7f5ea">97</text>
<rect x="166.0" y="94.5" width="50.0" height="199.5" fill="#5fd0db" opacity="0.9" rx="2"/>
<text x="191.0" y="88.5" text-anchor="middle" font-size="10.5" fill="#e7f5ea">100</text>
<line x1="50.0" y1="130.0" x2="216.0" y2="130.0" stroke="#fff" stroke-width="1.4" stroke-dasharray="3,2"/>
<text x="133.0" y="312.0" text-anchor="middle" font-size="11" fill="#bcd6c5">SFT base</text>
<text x="133.0" y="326.0" text-anchor="middle" font-size="9.5" fill="#4d6358">mean 97.3</text>
<rect x="252.0" y="67.9" width="50.0" height="226.1" fill="#3ddc84" opacity="0.9" rx="2"/>
<text x="277.0" y="61.9" text-anchor="middle" font-size="10.5" fill="#e7f5ea">102</text>
<rect x="310.0" y="67.9" width="50.0" height="226.1" fill="#3ddc84" opacity="0.9" rx="2"/>
<text x="335.0" y="61.9" text-anchor="middle" font-size="10.5" fill="#e7f5ea">102</text>
<rect x="368.0" y="107.8" width="50.0" height="186.2" fill="#3ddc84" opacity="0.9" rx="2"/>
<text x="393.0" y="101.8" text-anchor="middle" font-size="10.5" fill="#e7f5ea">99</text>
<line x1="252.0" y1="81.2" x2="418.0" y2="81.2" stroke="#fff" stroke-width="1.4" stroke-dasharray="3,2"/>
<text x="335.0" y="312.0" text-anchor="middle" font-size="11" fill="#bcd6c5">Dense reward</text>
<text x="335.0" y="326.0" text-anchor="middle" font-size="9.5" fill="#4d6358">mean 101.0</text>
<rect x="454.0" y="161.0" width="50.0" height="133.0" fill="#ffce6a" opacity="0.9" rx="2"/>
<text x="479.0" y="155.0" text-anchor="middle" font-size="10.5" fill="#e7f5ea">95</text>
<rect x="512.0" y="147.7" width="50.0" height="146.3" fill="#ffce6a" opacity="0.9" rx="2"/>
<text x="537.0" y="141.7" text-anchor="middle" font-size="10.5" fill="#e7f5ea">96</text>
<rect x="570.0" y="174.3" width="50.0" height="119.7" fill="#ffce6a" opacity="0.9" rx="2"/>
<text x="595.0" y="168.3" text-anchor="middle" font-size="10.5" fill="#e7f5ea">94</text>
<line x1="454.0" y1="161.0" x2="620.0" y2="161.0" stroke="#fff" stroke-width="1.4" stroke-dasharray="3,2"/>
<text x="537.0" y="312.0" text-anchor="middle" font-size="11" fill="#bcd6c5">Compiler-aware</text>
<text x="537.0" y="326.0" text-anchor="middle" font-size="9.5" fill="#4d6358">mean 95.0</text>
<text x="50" y="16" font-size="11" fill="#82998d">valid@8 / 150 (pass@8, T=0.8, 3 seeds each; dashed = mean)</text>
</svg>