<svg xmlns="http://www.w3.org/2000/svg" width="900" height="280" viewBox="0 0 900 280">
<rect width="100%" height="100%" fill="white"/>
<text x="55" y="28" font-family="Arial, sans-serif" font-size="20" font-weight="700">Gradient Norm</text>
<line x1="55" y1="225" x2="845" y2="225" stroke="#222" stroke-width="1.5"/>
<line x1="55" y1="55" x2="55" y2="225" stroke="#222" stroke-width="1.5"/>
<line x1="55" y1="225.0" x2="845" y2="225.0" stroke="#e5e7eb" stroke-width="1"/>
<text x="45" y="229.0" text-anchor="end" font-family="Arial, sans-serif" font-size="11" fill="#374151">3.56</text>
<line x1="55" y1="182.5" x2="845" y2="182.5" stroke="#e5e7eb" stroke-width="1"/>
<text x="45" y="186.5" text-anchor="end" font-family="Arial, sans-serif" font-size="11" fill="#374151">6.64</text>
<line x1="55" y1="140.0" x2="845" y2="140.0" stroke="#e5e7eb" stroke-width="1"/>
<text x="45" y="144.0" text-anchor="end" font-family="Arial, sans-serif" font-size="11" fill="#374151">9.72</text>
<line x1="55" y1="97.5" x2="845" y2="97.5" stroke="#e5e7eb" stroke-width="1"/>
<text x="45" y="101.5" text-anchor="end" font-family="Arial, sans-serif" font-size="11" fill="#374151">12.80</text>
<line x1="55" y1="55.0" x2="845" y2="55.0" stroke="#e5e7eb" stroke-width="1"/>
<text x="45" y="59.0" text-anchor="end" font-family="Arial, sans-serif" font-size="11" fill="#374151">15.88</text>
<line x1="55.0" y1="55" x2="55.0" y2="225" stroke="#f3f4f6" stroke-width="1"/>
<text x="55.0" y="243" text-anchor="middle" font-family="Arial, sans-serif" font-size="11" fill="#374151">1</text>
<line x1="464.3" y1="55" x2="464.3" y2="225" stroke="#f3f4f6" stroke-width="1"/>
<text x="464.3" y="243" text-anchor="middle" font-family="Arial, sans-serif" font-size="11" fill="#374151">130</text>
<line x1="845.0" y1="55" x2="845.0" y2="225" stroke="#f3f4f6" stroke-width="1"/>
<text x="845.0" y="243" text-anchor="middle" font-family="Arial, sans-serif" font-size="11" fill="#374151">250</text>
<path d="M 55.0 55.0 L 83.6 118.0 L 115.3 187.9 L 147.0 208.6 L 178.7 203.0 L 210.5 193.9 L 242.2 213.4 L 273.9 216.4 L 305.6 213.4 L 337.4 212.5 L 369.1 210.3 L 400.8 213.8 L 432.6 209.9 L 464.3 210.8 L 496.0 209.0 L 527.7 213.4 L 559.5 220.5 L 591.2 215.9 L 622.9 205.6 L 654.6 192.2 L 686.4 208.2 L 718.1 216.8 L 749.8 207.7 L 781.5 225.0 L 813.3 221.3 L 845.0 199.1" fill="none" stroke="#ea580c" stroke-width="3" stroke-linecap="round" stroke-linejoin="round"/>
<circle cx="55.0" cy="55.0" r="2.5" fill="#ea580c"/>
<circle cx="83.6" cy="118.0" r="2.5" fill="#ea580c"/>
<circle cx="115.3" cy="187.9" r="2.5" fill="#ea580c"/>
<circle cx="147.0" cy="208.6" r="2.5" fill="#ea580c"/>
<circle cx="178.7" cy="203.0" r="2.5" fill="#ea580c"/>
<circle cx="210.5" cy="193.9" r="2.5" fill="#ea580c"/>
<circle cx="242.2" cy="213.4" r="2.5" fill="#ea580c"/>
<circle cx="273.9" cy="216.4" r="2.5" fill="#ea580c"/>
<circle cx="305.6" cy="213.4" r="2.5" fill="#ea580c"/>
<circle cx="337.4" cy="212.5" r="2.5" fill="#ea580c"/>
<circle cx="369.1" cy="210.3" r="2.5" fill="#ea580c"/>
<circle cx="400.8" cy="213.8" r="2.5" fill="#ea580c"/>
<circle cx="432.6" cy="209.9" r="2.5" fill="#ea580c"/>
<circle cx="464.3" cy="210.8" r="2.5" fill="#ea580c"/>
<circle cx="496.0" cy="209.0" r="2.5" fill="#ea580c"/>
<circle cx="527.7" cy="213.4" r="2.5" fill="#ea580c"/>
<circle cx="559.5" cy="220.5" r="2.5" fill="#ea580c"/>
<circle cx="591.2" cy="215.9" r="2.5" fill="#ea580c"/>
<circle cx="622.9" cy="205.6" r="2.5" fill="#ea580c"/>
<circle cx="654.6" cy="192.2" r="2.5" fill="#ea580c"/>
<circle cx="686.4" cy="208.2" r="2.5" fill="#ea580c"/>
<circle cx="718.1" cy="216.8" r="2.5" fill="#ea580c"/>
<circle cx="749.8" cy="207.7" r="2.5" fill="#ea580c"/>
<circle cx="781.5" cy="225.0" r="2.5" fill="#ea580c"/>
<circle cx="813.3" cy="221.3" r="2.5" fill="#ea580c"/>
<circle cx="845.0" cy="199.1" r="2.5" fill="#ea580c"/>
</svg>