<svg xmlns="http://www.w3.org/2000/svg" width="900" height="280" viewBox="0 0 900 280">
<rect width="100%" height="100%" fill="white"/>
<text x="55" y="28" font-family="Arial, sans-serif" font-size="20" font-weight="700">Learning Rate</text>
<line x1="55" y1="225" x2="845" y2="225" stroke="#222" stroke-width="1.5"/>
<line x1="55" y1="55" x2="55" y2="225" stroke="#222" stroke-width="1.5"/>
<line x1="55" y1="225.0" x2="845" y2="225.0" stroke="#e5e7eb" stroke-width="1"/>
<text x="45" y="229.0" text-anchor="end" font-family="Arial, sans-serif" font-size="11" fill="#374151">0.0e+00</text>
<line x1="55" y1="182.5" x2="845" y2="182.5" stroke="#e5e7eb" stroke-width="1"/>
<text x="45" y="186.5" text-anchor="end" font-family="Arial, sans-serif" font-size="11" fill="#374151">2.5e-06</text>
<line x1="55" y1="140.0" x2="845" y2="140.0" stroke="#e5e7eb" stroke-width="1"/>
<text x="45" y="144.0" text-anchor="end" font-family="Arial, sans-serif" font-size="11" fill="#374151">5.0e-06</text>
<line x1="55" y1="97.5" x2="845" y2="97.5" stroke="#e5e7eb" stroke-width="1"/>
<text x="45" y="101.5" text-anchor="end" font-family="Arial, sans-serif" font-size="11" fill="#374151">7.5e-06</text>
<line x1="55" y1="55.0" x2="845" y2="55.0" stroke="#e5e7eb" stroke-width="1"/>
<text x="45" y="59.0" text-anchor="end" font-family="Arial, sans-serif" font-size="11" fill="#374151">1.0e-05</text>
<line x1="55.0" y1="55" x2="55.0" y2="225" stroke="#f3f4f6" stroke-width="1"/>
<text x="55.0" y="243" text-anchor="middle" font-family="Arial, sans-serif" font-size="11" fill="#374151">1</text>
<line x1="464.3" y1="55" x2="464.3" y2="225" stroke="#f3f4f6" stroke-width="1"/>
<text x="464.3" y="243" text-anchor="middle" font-family="Arial, sans-serif" font-size="11" fill="#374151">130</text>
<line x1="845.0" y1="55" x2="845.0" y2="225" stroke="#f3f4f6" stroke-width="1"/>
<text x="845.0" y="243" text-anchor="middle" font-family="Arial, sans-serif" font-size="11" fill="#374151">250</text>
<path d="M 55.0 225.0 L 83.6 55.0 L 115.3 55.9 L 147.0 58.1 L 178.7 61.8 L 210.5 66.8 L 242.2 73.0 L 273.9 80.3 L 305.6 88.6 L 337.4 97.8 L 369.1 107.7 L 400.8 118.2 L 432.6 129.0 L 464.3 140.0 L 496.0 151.0 L 527.7 161.8 L 559.5 172.3 L 591.2 182.2 L 622.9 191.4 L 654.6 199.7 L 686.4 207.0 L 718.1 213.2 L 749.8 218.2 L 781.5 221.9 L 813.3 224.1 L 845.0 225.0" fill="none" stroke="#7c3aed" stroke-width="3" stroke-linecap="round" stroke-linejoin="round"/>
<circle cx="55.0" cy="225.0" r="2.5" fill="#7c3aed"/>
<circle cx="83.6" cy="55.0" r="2.5" fill="#7c3aed"/>
<circle cx="115.3" cy="55.9" r="2.5" fill="#7c3aed"/>
<circle cx="147.0" cy="58.1" r="2.5" fill="#7c3aed"/>
<circle cx="178.7" cy="61.8" r="2.5" fill="#7c3aed"/>
<circle cx="210.5" cy="66.8" r="2.5" fill="#7c3aed"/>
<circle cx="242.2" cy="73.0" r="2.5" fill="#7c3aed"/>
<circle cx="273.9" cy="80.3" r="2.5" fill="#7c3aed"/>
<circle cx="305.6" cy="88.6" r="2.5" fill="#7c3aed"/>
<circle cx="337.4" cy="97.8" r="2.5" fill="#7c3aed"/>
<circle cx="369.1" cy="107.7" r="2.5" fill="#7c3aed"/>
<circle cx="400.8" cy="118.2" r="2.5" fill="#7c3aed"/>
<circle cx="432.6" cy="129.0" r="2.5" fill="#7c3aed"/>
<circle cx="464.3" cy="140.0" r="2.5" fill="#7c3aed"/>
<circle cx="496.0" cy="151.0" r="2.5" fill="#7c3aed"/>
<circle cx="527.7" cy="161.8" r="2.5" fill="#7c3aed"/>
<circle cx="559.5" cy="172.3" r="2.5" fill="#7c3aed"/>
<circle cx="591.2" cy="182.2" r="2.5" fill="#7c3aed"/>
<circle cx="622.9" cy="191.4" r="2.5" fill="#7c3aed"/>
<circle cx="654.6" cy="199.7" r="2.5" fill="#7c3aed"/>
<circle cx="686.4" cy="207.0" r="2.5" fill="#7c3aed"/>
<circle cx="718.1" cy="213.2" r="2.5" fill="#7c3aed"/>
<circle cx="749.8" cy="218.2" r="2.5" fill="#7c3aed"/>
<circle cx="781.5" cy="221.9" r="2.5" fill="#7c3aed"/>
<circle cx="813.3" cy="224.1" r="2.5" fill="#7c3aed"/>
<circle cx="845.0" cy="225.0" r="2.5" fill="#7c3aed"/>
</svg>